<svg xmlns="http://www.w3.org/2000/svg" viewBox="0 0 320 320"><defs><linearGradient id="g" x1="0" y1="0" x2="1" y2="1"><stop stop-color="#06d6a0"/><stop offset="1" stop-color="#073b4c"/></linearGradient></defs><rect width="320" height="320" rx="48" fill="url(#g)"/><circle cx="160" cy="160" r="108" fill="#ffd7bd"/><path d="M48 153C55 55 118 29 164 40c65-22 115 33 110 122-24-46-67-62-115-58-45 3-81 18-111 49Z" fill="#073b4c"/><ellipse cx="120" cy="161" rx="13" ry="17" fill="#111"/><ellipse cx="201" cy="161" rx="13" ry="17" fill="#111"/><circle cx="124" cy="157" r="4" fill="#fff"/><circle cx="205" cy="157" r="4" fill="#fff"/><path d="M113 221c28 25 67 25 95 0" fill="none" stroke="#8d3f45" stroke-width="10" stroke-linecap="round"/><path d="M70 285c23-54 62-74 90-74 31 0 72 20 92 74" fill="#06d6a0"/></svg>